# xmcd
#
# Track frame offsets:
#	150
#	36275
#	60250
#	80575
#	97725
#	135875
#	155150
#	191350
#	216175
#
# Disc length: 3225 seconds
#
# Revision: 1
# Processed by: cddbd v1.4PL0 Copyright (c) Steve Scherf et al.
# Submitted via: audiograbber 1.80.04
#
DISCID=6b0c9709
DTITLE=Bo Reynold's Country Mixes - Country Mixes
DYEAR=1900
DGENRE=Country
TTITLE0=Renegade
TTITLE1=I'm Outta Here
TTITLE2=Girl Spyin'
TTITLE3=Guys Do It
TTITLE4=Big Hoochie
TTITLE5=Any Man
TTITLE6=Ain't Goin Down TROUBLE
TTITLE7=I'm a Cowboy
TTITLE8=3rd Rock
EXTD=\nMega Mixes
EXTT0=
EXTT1=
EXTT2=
EXTT3=
EXTT4=
EXTT5=
EXTT6=
EXTT7=
EXTT8=
PLAYORDER=
